<svg width="512" height="512" viewBox="0 0 512 512" fill="none" xmlns="http://www.w3.org/2000/svg">
<path d="M512 0C460.22 3.56 96.44 38.2 71.01 287.61C67.92 314.27 66.17 341.05 65.02 367.85L243.89 189.16C250.14 182.91 260.29 182.91 266.54 189.16C272.79 195.41 272.79 205.54 266.54 211.79L7.04 471.03C-2.34 480.4 -2.34 495.6 7.04 504.97C16.42 514.34 31.63 514.34 41.02 504.97L98.15 447.9C140.24 447.76 182.3 445.37 224.11 440.54C277.59 435.1 321.13 414.07 356.69 384H255.74L402.53 335.12C413.78 320.23 423.9 304.41 432.98 288H351.84L458.38 234.79C500.29 132.86 510.19 26.26 512 0Z" fill="#00FF8B"/>
</svg>
